<?xml version="1.0" encoding="UTF-8" standalone="no"?><!DOCTYPE svg PUBLIC "-//W3C//DTD SVG 1.1//EN" "http://www.w3.org/Graphics/SVG/1.1/DTD/svg11.dtd"><svg width="100%" height="100%" viewBox="0 0 3000 1920" version="1.1" xmlns="http://www.w3.org/2000/svg" xmlns:xlink="http://www.w3.org/1999/xlink" xml:space="preserve" xmlns:serif="http://www.serif.com/" style="fill-rule:evenodd;clip-rule:evenodd;stroke-linejoin:round;stroke-miterlimit:2;"><path id="Bg" d="M3000,1919.48l0,-1920l-3000,0.525l0,1920l3000,-0.525Z" style="fill:url(#_Radial1);"/><path id="sun" d="M1941.79,1207.26c-0,242.856 -197.168,440.023 -440.023,440.023c-242.856,0 -440.023,-197.167 -440.023,-440.023c-0,-242.855 197.167,-440.023 440.023,-440.023c242.855,0 440.023,197.168 440.023,440.023Z" style="fill:url(#_Linear2);"/><g id="ground"><rect id="ground1" serif:id="ground" x="0" y="1199.02" width="3000" height="720.451" style="fill:url(#_Radial3);"/><path id="hill_l_5" d="M0,1156.94l816.382,-0c0,-0 -88.626,-168.055 -119.185,-210.498c-30.527,-42.397 -97.129,-53.082 -105.035,-116.329c-7.906,-63.247 -43.713,-83.267 -66.63,-107.049c-41.047,-42.596 -98.212,-60.279 -168.52,-70.615c-91.917,-13.513 -273.409,58.808 -357.012,6.235l0,498.256Z" style="fill:url(#_Linear4);fill-rule:nonzero;"/><path id="hill_l_4" d="M248.4,1212.87l1.6,14.976l844.156,0.538l-101.666,-96.421c-67.764,-46.606 -121.394,-67.471 -156.988,-100.817c-36.551,-34.242 -100.59,-91.262 -151.008,-84.706c-98.24,12.775 -116.79,-29.821 -218.275,-5.157c-134.991,32.807 -203.484,207.494 -217.819,271.587Z" style="fill:url(#_Linear5);fill-rule:nonzero;"/><path id="hill_l_3" d="M617.481,989.159c-95.381,7.208 -189.436,71.57 -225.301,82.261c-128.771,38.387 -384.92,32.032 -392.18,36.657l0,141.09l1230.2,-3.995c-0,-0 -18.636,-28.8 -62.683,-45.741c-19.926,-7.664 -38.811,-2.153 -55.716,3.357c-20.464,6.671 -38.025,13.342 -51.013,-3.357c-23.718,-30.494 -33.882,-40.659 -66.07,-38.965c-32.188,1.695 -30.494,-45.741 -67.764,-66.07c-37.271,-20.33 -125.365,-44.047 -157.554,-60.988c-26.149,-13.763 -87.021,-49.153 -151.915,-44.249Z" style="fill:url(#_Linear6);fill-rule:nonzero;"/><path id="hill_l_2" d="M919.409,1157.92c-27.107,10.165 -63.53,65.223 -109.271,60.988c-45.741,-4.236 -106.729,51.671 -106.729,51.671l559.058,-0c-0,-0 2.411,-4.348 -21.177,-5.93c-0,-0 -11.081,2.718 -46.588,-6.777c-35.507,-9.494 -78.777,-49.976 -127.059,-44.046c-23.503,2.886 -52.825,-12.692 -79.861,-28.271c-24.83,-14.309 -47.733,-28.618 -62.419,-28.619c-2.172,-0.001 -4.162,0.312 -5.954,0.984Z" style="fill:url(#_Linear7);fill-rule:nonzero;"/><path id="hill_l_1" d="M0,1351.16c0,0 1312.46,10.632 1327.06,8.808c18.071,-2.259 -26.997,-7.806 -55.059,-11.294c-37.836,-4.704 -104.188,-25.412 -142.305,-35.576c-38.118,-10.165 -69.459,-51.671 -125.365,-46.589c-55.906,5.082 -44.894,-41.506 -104.188,-57.6c-59.294,-16.094 -50.823,-62.958 -88.094,-61.973c-37.271,0.985 -102.776,38.872 -153.599,-28.212c-50.691,-66.909 -115.346,-91.506 -184.931,-105.199c-109.741,-21.595 -473.514,-24.37 -473.514,-24.37l0,362.005Z" style="fill:url(#_Linear8);fill-rule:nonzero;"/><path id="hill_r_5" d="M2374.58,892.796c-39.343,-8.471 -150.097,288.419 -273.896,306.228l899.318,0l0,-546.283c0,-0 -124.418,118.95 -287.091,123.318c-68.136,1.83 -148.271,-23.379 -196.945,-12.103c-52.491,12.159 -103.449,137.008 -141.386,128.84Z" style="fill:url(#_Linear9);fill-rule:nonzero;"/><path id="hill_r_4" d="M2130.66,1077.62c-32.753,22.588 -73.412,72.283 -106.165,69.321c-32.752,-2.961 -109.553,39.102 -169.411,66.208l705.59,2.093l-9.51,-0.029c-77.005,-24.354 -178.006,-144.369 -219.47,-144.369c-42.917,-0 -55.341,-47.435 -93.74,-66.635c-4.545,-2.272 -9.054,-3.295 -13.534,-3.295c-33.37,0.004 -64.884,56.791 -93.76,76.706Z" style="fill:url(#_Linear10);fill-rule:nonzero;"/><path id="hill_r_2" d="M2076.93,1138.44c-40.658,20.329 -64.376,57.6 -116.329,70.023c-51.953,12.423 -175.16,32.635 -126.494,33.882c44.047,1.13 577.128,10.165 577.128,10.165c-0,-0 7.906,-40.659 -79.059,-53.082c-86.964,-12.424 -151.34,-45.177 -185.222,-81.317c-10.427,-11.122 -17.215,-15.399 -22.804,-15.398c-12.574,0.003 -19.073,21.654 -47.22,35.727Z" style="fill:url(#_Linear11);fill-rule:nonzero;"/><path id="hill_r_21" serif:id="hill_r_2" d="M2251.92,1223.15c-25.976,23.718 -106.164,-13.553 -160.376,-18.07c-54.211,-4.518 -117.459,31.623 -155.858,56.471c-38.401,24.847 -204.88,36.621 -156.424,38.399c36.175,1.328 932.805,6.461 1220.74,8.938l0,-349.149c-155.234,-5.483 -387.158,116.846 -439.321,121.21c-91.118,7.622 -117.12,-53.75 -168.58,-30.05c-51.46,23.7 -115.686,149.889 -140.178,172.251Z" style="fill:url(#_Linear12);fill-rule:nonzero;"/><path id="hill_r_1" d="M2291.36,1243.35c-29.364,16.94 -132.141,81.317 -186.352,54.211c-54.212,-27.106 -261.943,45.095 -326.4,59.858c-53.324,12.215 86.49,7.854 822.917,17.88c-22.856,-21.159 -132.78,-48.746 -213.036,-169.22c-10.204,-15.317 -24.813,-17.05 -34.234,-17.049c-27.838,0.004 -40.955,41.662 -62.895,54.32Z" style="fill:url(#_Linear13);fill-rule:nonzero;"/><path id="ground_f" d="M0,1919.48l3000,0.525l-0,-677.842c-5.218,-0.029 -242.744,52.111 -383.127,56.26c-88.967,2.63 -150.769,-64.285 -258.239,-21.131c-38.939,15.636 -69.143,49.222 -96.14,35.826c-51.953,-25.778 -102.812,31.984 -144.564,33.938c-41.754,1.954 -125.365,-22.842 -181.836,-33.007c-27.008,-4.861 -47.041,10.169 -65.164,25.2c-19.77,16.396 -37.269,32.793 -59.071,23.365c-41.788,-18.071 -59.859,14.682 -90.353,22.588c-30.493,7.906 -85.886,14.005 -243.952,18.07c-63.127,1.625 -131.491,-9.555 -192.692,-20.735c-71.416,-13.046 -133.081,-26.092 -165.296,-18.794c-59.824,13.553 -74.576,-37.27 -129.917,-44.046c-27.456,-3.362 -50.743,11.068 -72.617,25.497c-22.217,14.654 -42.977,29.309 -65.171,25.326c-44.047,-7.906 -212.91,-112.058 -322.253,-105.275c-299.043,18.55 -529.608,-41.027 -529.608,-41.027l-0,695.262Z" style="fill:url(#_Linear14);fill-rule:nonzero;"/></g><defs><radialGradient id="_Radial1" cx="0" cy="0" r="1" gradientUnits="userSpaceOnUse" gradientTransform="matrix(7.76765e-14,-1268.55,1485.66,2.9493,1492.68,1268.03)"><stop offset="0" style="stop-color:#f3e7f0;stop-opacity:1"/><stop offset="0.18" style="stop-color:#f3e7f0;stop-opacity:1"/><stop offset="0.34" style="stop-color:#fbb03b;stop-opacity:1"/><stop offset="0.7" style="stop-color:#ff7bac;stop-opacity:1"/><stop offset="1" style="stop-color:#00f;stop-opacity:1"/></radialGradient><linearGradient id="_Linear2" x1="0" y1="0" x2="1" y2="0" gradientUnits="userSpaceOnUse" gradientTransform="matrix(-1.76325,433.937,360.149,1.46342,1501.76,780.521)"><stop offset="0" style="stop-color:#fff;stop-opacity:1"/><stop offset="1" style="stop-color:#fbb03b;stop-opacity:1"/></linearGradient><radialGradient id="_Radial3" cx="0" cy="0" r="1" gradientUnits="userSpaceOnUse" gradientTransform="matrix(1200.1,0,-65.9452,290.289,1500,1207.26)"><stop offset="0" style="stop-color:#fd7aad;stop-opacity:1"/><stop offset="0.43" style="stop-color:#ff7bac;stop-opacity:1"/><stop offset="1" style="stop-color:#00f;stop-opacity:1"/></radialGradient><linearGradient id="_Linear4" x1="0" y1="0" x2="1" y2="0" gradientUnits="userSpaceOnUse" gradientTransform="matrix(-288.019,0,-0,-288.019,734.867,927.322)"><stop offset="0" style="stop-color:#ff7bac;stop-opacity:1"/><stop offset="0.97" style="stop-color:#00f;stop-opacity:1"/><stop offset="1" style="stop-color:#00f;stop-opacity:1"/></linearGradient><linearGradient id="_Linear5" x1="0" y1="0" x2="1" y2="0" gradientUnits="userSpaceOnUse" gradientTransform="matrix(582.775,232.658,-232.658,582.775,475.199,1120.64)"><stop offset="0" style="stop-color:#00f;stop-opacity:1"/><stop offset="0.52" style="stop-color:#ff7bac;stop-opacity:1"/><stop offset="1" style="stop-color:#92ffa1;stop-opacity:1"/></linearGradient><linearGradient id="_Linear6" x1="0" y1="0" x2="1" y2="0" gradientUnits="userSpaceOnUse" gradientTransform="matrix(870.775,0,0,870.775,359.421,1128.73)"><stop offset="0" style="stop-color:#00f;stop-opacity:1"/><stop offset="0.52" style="stop-color:#ff7bac;stop-opacity:1"/><stop offset="1" style="stop-color:#92ffa1;stop-opacity:1"/></linearGradient><linearGradient id="_Linear7" x1="0" y1="0" x2="1" y2="0" gradientUnits="userSpaceOnUse" gradientTransform="matrix(-559.127,0,-0,559.127,1262.54,1213.76)"><stop offset="0" style="stop-color:#92ffa1;stop-opacity:1"/><stop offset="0.48" style="stop-color:#ff7bac;stop-opacity:1"/><stop offset="1" style="stop-color:#00f;stop-opacity:1"/></linearGradient><linearGradient id="_Linear8" x1="0" y1="0" x2="1" y2="0" gradientUnits="userSpaceOnUse" gradientTransform="matrix(873.799,0,0,873.799,457.409,1157.92)"><stop offset="0" style="stop-color:#00f;stop-opacity:1"/><stop offset="0.52" style="stop-color:#ff7bac;stop-opacity:1"/><stop offset="1" style="stop-color:#92ffa1;stop-opacity:1"/></linearGradient><linearGradient id="_Linear9" x1="0" y1="0" x2="1" y2="0" gradientUnits="userSpaceOnUse" gradientTransform="matrix(247.341,4.26326e-14,0,247.341,2246.02,972.858)"><stop offset="0" style="stop-color:#ff7bac;stop-opacity:1"/><stop offset="0.97" style="stop-color:#00f;stop-opacity:1"/><stop offset="1" style="stop-color:#00f;stop-opacity:1"/></linearGradient><linearGradient id="_Linear10" x1="0" y1="0" x2="1" y2="0" gradientUnits="userSpaceOnUse" gradientTransform="matrix(548.893,-91.4822,91.4822,548.893,1819.74,1217.66)"><stop offset="0" style="stop-color:#92ffa1;stop-opacity:1"/><stop offset="0.48" style="stop-color:#ff7bac;stop-opacity:1"/><stop offset="1" style="stop-color:#00f;stop-opacity:1"/></linearGradient><linearGradient id="_Linear11" x1="0" y1="0" x2="1" y2="0" gradientUnits="userSpaceOnUse" gradientTransform="matrix(588.471,0,0,588.471,1822.95,1177.61)"><stop offset="0" style="stop-color:#92ffa1;stop-opacity:1"/><stop offset="0.48" style="stop-color:#ff7bac;stop-opacity:1"/><stop offset="1" style="stop-color:#00f;stop-opacity:1"/></linearGradient><linearGradient id="_Linear12" x1="0" y1="0" x2="1" y2="0" gradientUnits="userSpaceOnUse" gradientTransform="matrix(853.834,-77.9293,77.9293,853.834,1742.26,1259.77)"><stop offset="0" style="stop-color:#92ffa1;stop-opacity:1"/><stop offset="0.48" style="stop-color:#ff7bac;stop-opacity:1"/><stop offset="1" style="stop-color:#00f;stop-opacity:1"/></linearGradient><linearGradient id="_Linear13" x1="0" y1="0" x2="1" y2="0" gradientUnits="userSpaceOnUse" gradientTransform="matrix(796.052,0,0,796.052,1758.19,1285.13)"><stop offset="0" style="stop-color:#92ffa1;stop-opacity:1"/><stop offset="0.48" style="stop-color:#ff7bac;stop-opacity:1"/><stop offset="1" style="stop-color:#00f;stop-opacity:1"/></linearGradient><linearGradient id="_Linear14" x1="0" y1="0" x2="1" y2="0" gradientUnits="userSpaceOnUse" gradientTransform="matrix(2.89889e-14,-473.424,473.424,2.89889e-14,1555.48,1833.64)"><stop offset="0" style="stop-color:#ff7bac;stop-opacity:1"/><stop offset="1" style="stop-color:#00f;stop-opacity:1"/></linearGradient></defs></svg>